#!OML:ASF I:\Actors\actors\Patient Classification 1\Patient 1\Session 1\Subject1.ASF
:FULLY-SPECIFIED
:DEGREES
1145
root -0.248962 17.7048 9.90048 16.6514 5.50909 -9.85014
lowerback 2.78071 2.96652 10.1655
upperback -7.64031 4.80657 0.000612771
thorax -8.94045 1.63444 -6.14589
lowerneck -1.7813 -5.70356 -2.34495
upperneck 27.691 -10.2626 9.99776
head 9.68016 -4.03795 2.98658
rclavicle 1.46604e-014 3.10104e-014
rhumerus 1.09522 -2.77992 8.47832
rradius 38.014
rwrist -7.1719
rhand 79.418 -56.0923
rfingers 7.12502
rthumb 68.2019 34.648
lclavicle 1.46604e-014 3.10104e-014
lhumerus 12.1244 -19.5475 -12.2238
lradius 51.0312
lwrist 36.475
lhand 59.8 10.428
lfingers 7.12502
lthumb 74.556 -21.2783
rfemur -6.57744 25.6665 25.8425
rtibia 2.05735
rfoot -15.7853 -29.5476
rtoes 6.57458
lfemur 2.50277 -58.5427 -5.84384
ltibia -5.52778
lfoot -51.6267 59.3088
ltoes 24.9253
1146
root -0.24838 17.7035 9.90633 16.6639 5.70796 -9.77545
lowerback 2.98095 2.88664 10.0588
upperback -7.81565 4.72815 -0.0142965
thorax -9.27583 1.57627 -6.11932
lowerneck -1.65981 -5.57894 -2.21896
upperneck 27.8181 -10.0926 9.93723
head 9.68055 -3.9507 2.96649
rclavicle -2.73329e-015 1.70955e-014
rhumerus 1.7777 -6.39717 8.37738
rradius 38.2963
rwrist -3.93423
rhand 78.3113 -55.8866
rfingers 7.12502
rthumb 68.981 32.8484
lclavicle -2.73329e-015 1.70955e-014
lhumerus 12.3702 -17.9039 -12.4262
lradius 51.2957
lwrist 36.2448
lhand 61.5253 11.0761
lfingers 7.12502
lthumb 74.8616 -26.8445
rfemur -6.47466 25.6901 25.7958
rtibia 1.89693
rfoot -15.8268 -29.7556
rtoes 6.63326
lfemur 2.47734 -58.7055 -5.84858
ltibia -5.57902
lfoot -51.6418 59.2055
ltoes 25.1002
1147
root -0.247731 17.7031 9.91166 16.7754 5.92643 -9.68924
lowerback 3.14667 2.8242 9.96169
upperback -8.04504 4.67279 -0.0357859
thorax -9.64793 1.525 -6.10619
lowerneck -1.84047 -5.55911 -2.16056
upperneck 28.174 -10.0805 9.80988
head 9.83501 -3.93075 2.9124
rclavicle -1.2101e-014 2.10712e-014
rhumerus 2.2854 -9.34836 8.42496
rradius 38.8744
rwrist -0.599893
rhand 76.4543 -55.4593
rfingers 7.12502
rthumb 70.2213 29.5566
lclavicle -1.2101e-014 2.10712e-014
lhumerus 12.4432 -15.9087 -12.3078
lradius 51.605
lwrist 35.7056
lhand 63.4627 11.453
lfingers 7.12502
lthumb 74.9797 -33.6505
rfemur -6.48835 25.7855 25.6863
rtibia 1.73463
rfoot -15.9144 -30.0374
rtoes 6.80634
lfemur 2.17072 -58.8556 -5.61156
ltibia -5.63095
lfoot -51.5309 59.1813
ltoes 25.3232
1148
root -0.246335 17.7033 9.91767 16.9176 6.16944 -9.66527
lowerback 3.27741 2.77544 9.9133
upperback -8.26142 4.63644 -0.0323913
thorax -9.98221 1.48359 -6.09132
lowerneck -1.91599 -5.54003 -2.31107
upperneck 28.3846 -10.0716 9.84921
head 9.93621 -3.92686 2.95419
rclavicle 2.2239e-014 1.82882e-014
rhumerus 2.64286 -11.9821 8.61757
rradius 39.593
rwrist 2.8938
rhand 74.5161 -54.7284
rfingers 7.12502
rthumb 71.4106 25.885
lclavicle 2.2239e-014 1.82882e-014
lhumerus 12.4207 -13.3756 -11.8747
lradius 51.9241
lwrist 35.3428
lhand 64.7766 11.7882
lfingers 7.12502
lthumb 74.9213 -38.1988
rfemur -6.52799 25.911 25.6478
rtibia 1.57521
rfoot -15.9899 -30.3649
rtoes 6.91758
lfemur 1.78292 -59.0013 -5.23465
ltibia -5.67433
lfoot -51.3124 59.206
ltoes 25.4073
1149
root -0.243551 17.7032 9.92321 17.0799 6.41561 -9.67503
lowerback 3.41407 2.73339 9.90336
upperback -8.46735 4.61246 -0.028455
thorax -10.3057 1.44626 -6.09807
lowerneck -1.83601 -5.54453 -2.35795
upperneck 28.3104 -10.067 9.86685
head 9.89621 -3.93312 2.97034
rclavicle 3.2054e-014 -5.1684e-015
rhumerus 3.14328 -15.8829 8.30443
rradius 40.2063
rwrist 7.67185
rhand 72.8591 -54.0744
rfingers 7.12502
rthumb 72.3259 22.3183
lclavicle 3.2054e-014 -5.1684e-015
lhumerus 12.3926 -10.5814 -11.3798
lradius 52.2917
lwrist 35.5373
lhand 65.054 12.3318
lfingers 7.12502
lthumb 74.8947 -38.679
rfemur -6.61025 26.0782 25.6311
rtibia 1.45969
rfoot -16.1363 -30.6877
rtoes 7.24473
lfemur 1.35178 -59.1368 -4.80058
ltibia -5.68149
lfoot -51.041 59.23
ltoes 25.2575
1150
root -0.240187 17.7026 9.92654 17.2629 6.64345 -9.62552
lowerback 3.60367 2.68065 9.84994
upperback -8.69109 4.57621 -0.0431908
thorax -10.6862 1.40136 -6.1042
lowerneck -2.00241 -5.65939 -2.45479
upperneck 28.4222 -10.218 9.79171
head 9.98204 -4.01057 2.9412
rclavicle -1.96797e-014 -3.10104e-014
rhumerus 3.59688 -19.5545 8.07004
rradius 40.8298
rwrist 11.6746
rhand 70.7158 -53.2577
rfingers 7.12502
rthumb 73.3447 17.0239
lclavicle -1.96797e-014 -3.10104e-014
lhumerus 12.35 -7.76328 -10.8647
lradius 52.613
lwrist 35.8048
lhand 64.7985 13.1969
lfingers 7.12502
lthumb 74.9194 -36.871
rfemur -6.73669 26.3265 25.5207
rtibia 1.37667
rfoot -16.3994 -31.0525
rtoes 7.94519
lfemur 0.866776 -59.2691 -4.40035
ltibia -5.66787
lfoot -50.8806 59.2357
ltoes 25.0662
1151
root -0.238035 17.7016 9.92938 17.4287 6.83923 -9.59466
lowerback 3.82484 2.63034 9.77408
upperback -8.88649 4.54702 -0.00957167
thorax -11.0587 1.36586 -6.04659
lowerneck -2.47088 -5.8079 -2.62985
upperneck 28.7951 -10.4215 9.63779
head 10.2277 -4.10791 2.88526
rclavicle 7.278e-014 -1.59028e-015
rhumerus 4.10291 -23.6754 7.63488
rradius 41.5388
rwrist 15.2781
rhand 68.413 -52.3643
rfingers 7.12502
rthumb 74.1944 10.5563
lclavicle 7.278e-014 -1.59028e-015
lhumerus 12.2222 -4.62009 -10.067
lradius 52.8892
lwrist 35.2383
lhand 64.5836 14.0161
lfingers 7.12502
lthumb 74.9369 -35.2563
rfemur -6.84482 26.5936 25.437
rtibia 1.28561
rfoot -16.6438 -31.42
rtoes 8.52912
lfemur 0.477764 -59.3696 -4.04997
ltibia -5.6994
lfoot -50.9639 59.1554
ltoes 25.0697
1152
root -0.237096 17.7009 9.93259 17.5636 7.03624 -9.61725
lowerback 4.08933 2.56985 9.70179
upperback -9.03422 4.51388 0.106858
thorax -11.4112 1.33567 -5.9005
lowerneck -2.50504 -5.7559 -2.91847
upperneck 28.8288 -10.2975 9.57273
head 10.2469 -4.08467 2.92363
rclavicle 5.70264e-014 1.19271e-015
rhumerus 4.67005 -27.6124 7.29411
rradius 42.2944
rwrist 18.0504
rhand 66.2491 -51.2369
rfingers 7.12502
rthumb 74.7244 4.13181
lclavicle 5.70264e-014 1.19271e-015
lhumerus 11.9499 -0.909474 -8.88137
lradius 53.2826
lwrist 33.5732
lhand 64.474 14.8724
lfingers 7.12502
lthumb 74.9447 -33.9939
rfemur -6.90491 26.8583 25.438
rtibia 1.1711
rfoot -16.847 -31.7861
rtoes 8.95488
lfemur 0.122927 -59.4574 -3.6643
ltibia -5.72562
lfoot -50.969 59.0894
ltoes 25.243
1153
root -0.235721 17.7003 9.93493 17.7142 7.25415 -9.55613
lowerback 4.39944 2.4747 9.53202
upperback -9.17909 4.42952 0.228632
thorax -11.8034 1.28815 -5.69056
lowerneck -2.75195 -5.73777 -3.18094
upperneck 28.9774 -10.2195 9.43035
head 10.3486 -4.07698 2.91974
rclavicle -1.56543e-015 -3.61788e-014
rhumerus 5.27848 -31.2165 7.02071
rradius 43.0487
rwrist 20.1289
rhand 64.1322 -50.1982
rfingers 7.12502
rthumb 74.9639 -2.60138
lclavicle -1.56543e-015 -3.61788e-014
lhumerus 11.6105 3.17428 -7.50818
lradius 53.8406
lwrist 31.2465
lhand 63.7774 16.1314
lfingers 7.12502
lthumb 74.9759 -30.1446
rfemur -6.95896 27.1422 25.338
rtibia 1.00881
rfoot -16.9675 -32.2404
rtoes 9.34867
lfemur -0.307767 -59.5849 -3.31232
ltibia -5.72618
lfoot -50.8928 59.0422
ltoes 25.4941
1154
root -0.234184 17.6998 9.93601 17.9151 7.50266 -9.4308
lowerback 4.69586 2.35568 9.30546
upperback -9.35133 4.30094 0.300767
thorax -12.2265 1.22052 -5.49641
lowerneck -2.9414 -5.72814 -3.3226
upperneck 29.0471 -10.1865 9.38656
head 10.4135 -4.07263 2.92665
rclavicle -5.95112e-015 -1.86858e-014
rhumerus 5.73226 -34.3944 6.76402
rradius 43.8917
rwrist 21.4717
rhand 61.577 -49.5188
rfingers 7.12502
rthumb 74.8679 -11.4084
lclavicle -5.95112e-015 -1.86858e-014
lhumerus 11.4122 7.47256 -6.14414
lradius 54.0528
lwrist 28.1852
lhand 62.6996 13.6287
lfingers 7.12502
lthumb 74.9622 -28.6331
rfemur -7.09266 27.4313 25.125
rtibia 0.869799
rfoot -17.1569 -32.7224
rtoes 9.98964
lfemur -0.871059 -59.7366 -2.89972
ltibia -5.74255
lfoot -51.0112 58.8975
ltoes 25.8285
1155
root -0.232438 17.6988 9.93549 18.1308 7.81343 -9.41363
lowerback 4.9779 2.2145 9.23576
upperback -9.5175 4.15785 0.387058
thorax -12.6324 1.13436 -5.36825
lowerneck -3.13973 -5.72021 -3.52205
upperneck 29.1447 -10.1632 9.38732
head 10.4973 -4.07357 2.95878
rclavicle -3.65764e-014 -9.14409e-015
rhumerus 5.83453 -37.0558 6.65162
rradius 45.0425
rwrist 21.9667
rhand 58.5624 -48.5317
rfingers 7.12502
rthumb 74.2265 -21.097
lclavicle -3.65764e-014 -9.14409e-015
lhumerus 11.3439 11.6258 -4.83286
lradius 54.3853
lwrist 25.6482
lhand 60.3128 12.4608
lfingers 7.12502
lthumb 74.666 -21.0652
rfemur -7.27867 27.6744 25.022
rtibia 0.768886
rfoot -17.4367 -33.1436
rtoes 10.6604
lfemur -1.66644 -59.8971 -2.16139
ltibia -5.71355
lfoot -50.7721 59.0067
ltoes 25.6716
1156
root -0.229942 17.6971 9.93311 18.334 8.13485 -9.47899
lowerback 5.3038 2.07313 9.29892
upperback -9.64957 4.03547 0.499041
thorax -13.021 1.0492 -5.28736
lowerneck -3.48746 -5.70793 -3.68867
upperneck 29.3675 -10.0959 9.19892
head 10.6417 -4.06139 2.91886
rclavicle -1.48716e-014 1.78906e-014
rhumerus 5.64746 -39.4316 6.67805
rradius 46.4437
rwrist 21.9237
rhand 54.7255 -46.7129
rfingers 7.12502
rthumb 72.6877 -31.15
lclavicle -1.48716e-014 1.78906e-014
lhumerus 11.1648 15.7434 -3.46681
lradius 55.0756
lwrist 23.3598
lhand 56.6652 11.833
lfingers 7.12502
lthumb 73.5567 -9.45069
rfemur -7.45522 27.8278 25.0182
rtibia 0.632613
rfoot -17.5175 -33.506
rtoes 10.8234
lfemur -2.56373 -60.0355 -1.25664
ltibia -5.64964
lfoot -49.9386 59.4747
ltoes 24.7803
1157
root -0.223545 17.6917 9.92552 18.3624 8.56373 -9.89123
lowerback 5.8565 1.91673 9.84544
upperback -9.73169 3.98635 0.67821
thorax -13.4734 0.950975 -5.42025
lowerneck -3.9324 -5.68328 -3.7824
upperneck 29.5463 -10.0085 8.99514
head 10.7829 -4.03256 2.85933
rclavicle 3.8353e-014 -3.57812e-014
rhumerus 4.69192 -41.6726 6.81088
rradius 48.6591
rwrist 21.4933
rhand 49.8062 -44.8151
rfingers 7.12502
rthumb 69.8243 -41.1028
lclavicle 3.8353e-014 -3.57812e-014
lhumerus 10.6565 19.7764 -2.08888
lradius 56.4709
lwrist 21.2413
lhand 51.7061 11.5899
lfingers 7.12502
lthumb 71.0263 3.73687
rfemur -7.46285 27.7474 25.526
rtibia 0.476461
rfoot -17.4412 -33.6798
rtoes 10.772
lfemur -3.22196 -60.1914 -0.142733
ltibia -5.63615
lfoot -48.6453 60.1842
ltoes 23.1812
1158
root -0.212057 17.6866 9.90653 18.1989 9.41604 -10.5268
lowerback 6.71129 1.59359 10.8953
upperback -9.79485 3.83134 0.884397
thorax -14.1108 0.736669 -5.79819
lowerneck -4.42945 -5.65836 -3.83305
upperneck 29.6694 -9.95846 8.92461
head 10.9229 -4.00306 2.83448
rclavicle -3.80176e-015 3.61788e-014
rhumerus 3.13713 -43.3971 7.21392
rradius 51.1426
rwrist 20.275
rhand 43.9666 -42.8615
rfingers 7.12502
rthumb 65.5902 -49.024
lclavicle -3.80176e-015 3.61788e-014
lhumerus 9.89963 23.5598 -0.804602
lradius 58.3936
lwrist 19.362
lhand 45.866 11.5144
lfingers 7.12502
lthumb 67.0407 14.8794
rfemur -7.29703 27.5798 26.3679
rtibia 0.270925
rfoot -17.6019 -34.0701
rtoes 11.2143
lfemur -4.24538 -60.6957 1.55926
ltibia -5.44279
lfoot -46.8162 61.0552
ltoes 20.958
